<svg xmlns="http://www.w3.org/2000/svg" xmlns:xlink="http://www.w3.org/1999/xlink" version="1.1" x="0px" y="0px" viewBox="0 0 100 117.9175" enable-background="new 0 0 100 94.334" xml:space="preserve"><path d="M22.446,34.085c-1.551,0.388-3.98,0.388-5.412,0c-1.432-0.373-1.313-0.983,0.238-1.356c1.551-0.373,3.951-0.373,5.368,0  C24.086,33.102,23.997,33.712,22.446,34.085z"/><path fill="#000000" d="M22.446,34.085c-1.551,0.388-3.98,0.388-5.412,0c-1.432-0.373-1.313-0.983,0.238-1.356  c1.551-0.373,3.951-0.373,5.368,0C24.086,33.102,23.997,33.712,22.446,34.085z"/><rect x="48.714" y="41.459" transform="matrix(0.9668 0.2554 -0.2554 0.9668 12.4805 -13.1913)" fill="#000000" width="16.641" height="0.003"/><path d="M26.419,16.725c0-3.635-2.939-6.575-6.571-6.575c-3.629,0-6.572,2.945-6.572,6.575c0,2.836,1.8,5.256,4.319,6.172  l2.381,5.992l2.431-6.114c2.355-0.999,4.012-3.325,4.016-6.05H26.419z M18.764,17.739l-0.626,1.895h-0.805l2.047-6.026h0.939  l2.057,6.026h-0.832l-0.645-1.895H18.764z M20.74,17.133l-0.591-1.735c-0.134-0.394-0.223-0.75-0.313-1.1h-0.018  c-0.089,0.358-0.188,0.724-0.304,1.09l-0.59,1.745H20.74z"/><path d="M80.503,73.386c-3.892-1.4-9.438-1.773-14.149-1.103L17.466,58.269l40.389-10.735c0.373,5.084,3.713,9.333,8.319,11.003  l4.606,11.6l4.697-11.839c1.192-0.507,2.281-1.178,3.235-1.982c2.788-2.325,4.547-5.814,4.547-9.735  c0-3.206-1.192-6.143-3.145-8.379c-2.327-2.669-5.756-4.354-9.588-4.354c-5.367,0-9.959,3.325-11.822,8.036l-32.16-8.468h-0.015  c0.089-0.432-0.492-0.88-1.774-1.208c-2.504-0.656-6.724-0.656-9.438,0c-2.728,0.656-2.922,1.729-0.417,2.4  c2.103,0.552,5.397,0.656,8.021,0.283l35.111,9.289c-0.074,0.432-0.134,0.88-0.179,1.327L13.65,57.179l-7.44,1.969l53.152,15.416  c-2.685,1.878-1.909,4.279,2.385,5.89c5.323,2.012,13.939,2.012,19.144,0C86.034,78.47,85.811,75.309,80.503,73.386z M22.446,34.085  c-1.551,0.388-3.98,0.388-5.412,0c-1.432-0.373-1.313-0.983,0.238-1.356c1.551-0.373,3.951-0.373,5.368,0  C24.086,33.102,23.997,33.712,22.446,34.085z M66.792,39.202c0.851-0.179,2.192-0.313,3.556-0.313c1.946,0,3.2,0.336,4.138,1.096  c0.783,0.582,1.252,1.475,1.252,2.66c0,1.455-0.961,2.729-2.549,3.312v0.043c1.431,0.357,3.108,1.543,3.108,3.779  c0,1.297-0.514,2.281-1.275,3.02c-1.05,0.963-2.749,1.408-5.208,1.408c-1.341,0-2.372-0.091-3.019-0.181V39.202H66.792z   M68.737,45.375h1.768c2.058,0,3.265-1.074,3.265-2.525c0-1.769-1.341-2.46-3.312-2.46c-0.894,0-1.406,0.067-1.721,0.134V45.375z   M68.737,52.596c0.382,0.066,0.94,0.092,1.634,0.092c2.012,0,3.868-0.738,3.868-2.93c0-2.058-1.766-2.908-3.892-2.908h-1.61V52.596  L68.737,52.596z"/></svg>